<svg width="30" height="30" viewBox="0 0 30 30" fill="none" xmlns="http://www.w3.org/2000/svg">
<g clip-path="url(#clip0_2401_77)">
<path d="M29.8751 5.24996C29.7501 5.12498 29.6251 4.99994 29.3751 4.99994H5.62506L5.00004 1.74998C5.00004 1.49996 4.62504 1.25 4.37502 1.25H0.625022C0.250081 1.24994 6.10352e-05 1.49996 6.10352e-05 1.87496C6.10352e-05 2.24996 0.250081 2.49998 0.625081 2.49998H3.8751L6.8751 17.75C7.2501 19.75 9.1251 21.25 11.1251 21.25H25.5001C25.8751 21.25 26.1251 21 26.1251 20.625C26.1251 20.25 25.8751 20 25.5001 20H11.2501C10.25 20 9.25008 19.5 8.75004 18.6249L27.0001 16.125C27.2501 16.125 27.5 15.875 27.5 15.625L30.0001 5.62496C30.0001 5.62496 30.0001 5.37494 29.8751 5.24996ZM26.375 15L8.12502 17.375L5.87502 6.12495H28.5001L26.375 15Z" fill="#33485D"/>
<path d="M10.625 22.5C8.87508 22.5 7.50006 23.875 7.50006 25.625C7.50006 27.375 8.87508 28.75 10.625 28.75C12.3751 28.75 13.75 27.3749 13.75 25.625C13.7501 23.875 12.3751 22.5 10.625 22.5ZM10.625 27.5C9.62502 27.5 8.75004 26.6249 8.75004 25.625C8.75004 24.625 9.62502 23.75 10.625 23.75C11.6251 23.75 12.5 24.625 12.5 25.625C12.5 26.6249 11.6251 27.5 10.625 27.5Z" fill="#33485D"/>
<path d="M23.125 22.5C21.375 22.5 20.0001 23.875 20.0001 25.625C20.0001 27.375 21.3751 28.75 23.125 28.75C24.8751 28.75 26.25 27.3749 26.25 25.625C26.25 23.875 24.875 22.5 23.125 22.5ZM23.125 27.5C22.125 27.5 21.25 26.6249 21.25 25.625C21.25 24.625 22.125 23.75 23.125 23.75C24.1251 23.75 25 24.625 25 25.625C25 26.6249 24.125 27.5 23.125 27.5Z" fill="#33485D"/>
</g>
<defs>
<clipPath id="clip0_2401_77">
<rect width="30" height="30" fill="white"/>
</clipPath>
</defs>
</svg>
